HIERARCHY
ROOT Hips
{
	OFFSET 39.479198 -0.871640 99.921600
	CHANNELS 6 Xposition Yposition Zposition Xrotation Yrotation Zrotation
	JOINT spine
	{
		OFFSET 0.000000 -0.507026 8.817047
		CHANNELS 3 Xrotation Yrotation Zrotation
		JOINT spine1
		{
			OFFSET 0.000000 -0.000002 10.776596
			CHANNELS 3 Xrotation Yrotation Zrotation
			JOINT spine2
			{
				OFFSET 0.000000 -0.000002 10.325897
				CHANNELS 3 Xrotation Yrotation Zrotation
				JOINT Neck
				{
					OFFSET 0.000000 -1.263955 26.511002
					CHANNELS 3 Xrotation Yrotation Zrotation
					JOINT Head
					{
						OFFSET 0.000000 -0.000001 8.009659
						CHANNELS 3 Xrotation Yrotation Zrotation
						End Site
						{
							OFFSET 0.000000 6.393857 19.387894
						}
					}
				}
				JOINT RightShoulder
				{
					OFFSET -4.347950 0.605420 11.151199
					CHANNELS 3 Xrotation Yrotation Zrotation
					JOINT RightArm
					{
						OFFSET 0.000000 -0.000002 14.625793
						CHANNELS 3 Xrotation Yrotation Zrotation
						JOINT RightArmRoll
						{
							OFFSET 0.000000 -0.000001 7.383392
							CHANNELS 3 Xrotation Yrotation Zrotation
							JOINT RightForeArm
							{
								OFFSET 0.000000 -0.000003 21.505203
								CHANNELS 3 Xrotation Yrotation Zrotation
								JOINT RightForeArmRoll
								{
									OFFSET 0.000000 -0.000001 8.285324
									CHANNELS 3 Xrotation Yrotation Zrotation
									JOINT RightHand
									{
										OFFSET 0.000000 -0.000003 16.626801
										CHANNELS 3 Xrotation Yrotation Zrotation
										End Site
										{
											OFFSET 0.000000 -0.000000 0.100006
										}
									}
								}
							}
						}
					}
				}
				JOINT LeftShoulder
				{
					OFFSET 4.347950 0.605420 11.151199
					CHANNELS 3 Xrotation Yrotation Zrotation
					JOINT LeftArm
					{
						OFFSET 0.000000 -0.000002 14.625793
						CHANNELS 3 Xrotation Yrotation Zrotation
						JOINT LeftArmRoll
						{
							OFFSET 0.000000 -0.000001 7.383392
							CHANNELS 3 Xrotation Yrotation Zrotation
							JOINT LeftForeArm
							{
								OFFSET 0.000000 -0.000003 21.505203
								CHANNELS 3 Xrotation Yrotation Zrotation
								JOINT LeftForeArmRoll
								{
									OFFSET 0.000000 -0.000001 8.285324
									CHANNELS 3 Xrotation Yrotation Zrotation
									JOINT LeftHand
									{
										OFFSET 0.000000 -0.000003 16.626801
										CHANNELS 3 Xrotation Yrotation Zrotation
										End Site
										{
											OFFSET 0.000000 -0.000000 0.100006
										}
									}
								}
							}
						}
					}
				}
			}
		}
	}
	JOINT RightUpLeg
	{
		OFFSET -7.815100 1.202170 -1.433090
		CHANNELS 3 Xrotation Yrotation Zrotation
		JOINT RightUpLegRoll
		{
			OFFSET 0.000000 -0.000003 19.495895
			CHANNELS 3 Xrotation Yrotation Zrotation
			JOINT RightLeg
			{
				OFFSET 0.000000 0.000004 -24.142700
				CHANNELS 3 Xrotation Yrotation Zrotation
				JOINT RightLegRoll
				{
					OFFSET 0.000000 -0.000004 24.221703
					CHANNELS 3 Xrotation Yrotation Zrotation
					JOINT RightFoot
					{
						OFFSET 0.000000 -0.000003 20.160500
						CHANNELS 3 Xrotation Yrotation Zrotation
						JOINT RightToeBase
						{
							OFFSET 0.000000 -0.000003 16.853195
							CHANNELS 3 Xrotation Yrotation Zrotation
							End Site
							{
								OFFSET 0.007143 0.940779 8.161865
							}
						}
					}
				}
			}
		}
	}
	JOINT LeftUpLeg
	{
		OFFSET 7.815102 1.202170 -1.433090
		CHANNELS 3 Xrotation Yrotation Zrotation
		JOINT LeftUpLegRoll
		{
			OFFSET 0.000000 -0.000003 19.496002
			CHANNELS 3 Xrotation Yrotation Zrotation
			JOINT LeftLeg
			{
				OFFSET 0.000000 -0.000004 24.142593
				CHANNELS 3 Xrotation Yrotation Zrotation
				JOINT LeftLegRoll
				{
					OFFSET 0.000000 -0.000004 24.445602
					CHANNELS 3 Xrotation Yrotation Zrotation
					JOINT LeftFoot
					{
						OFFSET 0.000000 -0.000003 19.936600
						CHANNELS 3 Xrotation Yrotation Zrotation
						JOINT LeftToeBase
						{
							OFFSET 0.000000 -0.000003 16.853195
							CHANNELS 3 Xrotation Yrotation Zrotation
							End Site
							{
								OFFSET -0.032013 0.940779 8.161865
							}
						}
					}
				}
			}
		}
	}
}
MOTION
Frames: 8
Frame Time: 0.041667
45.182995 -10.966016 96.236099 5.131696 1.172142 7.009263 -2.494227 0.507610 -0.112927 -0.984840 1.018950 -0.208509 0.660348 1.016373 -0.220701 -0.882637 4.666910 -0.997940 13.698300 -3.824538 -0.809154 -17.261698 -2.950434 -19.383512 -156.028336 -176.425180 -105.100950 -0.000001 0.000001 0.000011 7.925566 4.947258 0.079396 -0.000001 0.000004 -3.001632 -5.000211 -7.998890 0.000163 -16.288898 20.875211 18.340065 -157.244437 197.036956 106.885057 -0.000001 0.000001 -0.000000 8.647114 -5.515869 1.454890 -0.000001 -0.000002 2.999991 -5.000207 7.998722 -0.000142 -13.856017 -154.617383 7.636824 -179.999991 0.000008 -1.527007 154.646985 -0.662403 -1.202867 -0.000003 0.000003 0.427133 68.163054 6.814125 2.463466 27.831761 -7.243586 2.857156 -24.583668 161.920426 -1.428864 -0.000006 -0.000003 -1.423420 -32.115266 0.110219 0.569970 -0.000000 0.000000 -1.163740 72.543200 -6.875265 -1.921891 25.708974 7.351995 -0.335163 
45.131596 -11.186214 96.670700 5.095291 1.130544 6.985901 -2.505723 0.517450 -0.103422 -1.007916 1.038330 -0.189085 0.637278 1.035986 -0.201511 -1.018224 4.754304 -0.960847 13.958048 -3.933911 -0.755827 -17.266155 -3.105715 -19.399749 -155.989581 -176.043714 -105.257047 -0.000000 0.000000 0.000009 7.884104 4.856452 0.074133 -0.000001 0.000004 -3.001622 -5.000211 -7.998891 0.000163 -16.282558 21.136487 18.338015 -157.038726 196.700022 107.321096 -0.000000 0.000004 -0.000002 8.585582 -5.153052 1.427489 -0.000001 -0.000003 2.999989 -5.000208 7.998721 -0.000141 -13.503725 -154.727622 7.664445 -179.999991 0.000006 -1.535996 155.367679 -0.673580 -1.197847 -0.000003 0.000001 0.381655 67.912202 6.823573 2.446608 27.523709 -7.270688 2.483607 -23.930574 161.941477 -1.613668 -0.000006 -0.000004 -1.443799 -30.959591 0.237229 0.639797 -0.000001 0.000000 -1.041541 71.628897 -6.897923 -1.922654 25.675774 7.352635 -0.290926 
45.143196 -11.157615 97.014702 5.057586 1.092978 6.960755 -2.516325 0.526565 -0.093955 -1.029195 1.056249 -0.169776 0.616004 1.054139 -0.182419 -1.165161 4.831577 -0.923249 14.224835 -4.031240 -0.703241 -17.276180 -3.268145 -19.425268 -155.950745 -175.661360 -105.415739 0.000000 0.000001 0.000008 7.839986 4.763989 0.068785 -0.000001 0.000004 -3.001621 -5.000211 -7.998890 0.000162 -16.275268 21.400839 18.335218 -156.847563 196.351724 107.769020 -0.000001 0.000003 -0.000002 8.522176 -4.786839 1.400184 -0.000001 -0.000002 2.999991 -5.000208 7.998722 -0.000144 -13.159177 -154.846549 7.685132 -179.999991 0.000006 -1.544000 156.070396 -0.682794 -1.190997 -0.000002 0.000002 0.340403 67.685686 6.830257 2.432752 27.208057 -7.294505 2.101776 -23.281907 161.960601 -1.795334 -0.000006 -0.000004 -1.462851 -29.810757 0.362741 0.706048 -0.000001 -0.000000 -0.918279 70.723139 -6.914894 -1.937929 25.641966 7.353242 -0.245986 
45.102196 -11.197814 97.361603 5.019312 1.059073 6.935677 -2.526160 0.535034 -0.084714 -1.048944 1.072880 -0.150952 0.596257 1.070993 -0.163795 -1.321174 4.897544 -0.886210 14.496395 -4.115294 -0.652567 -17.292509 -3.438373 -19.461174 -155.910679 -175.280727 -105.573455 0.000001 0.000001 0.000007 7.792057 4.671620 0.063468 -0.000001 0.000005 -3.001610 -5.000211 -7.998891 0.000161 -16.266307 21.669427 18.330580 -156.671658 195.997674 108.220680 -0.000001 0.000003 -0.000001 8.456322 -4.422589 1.373319 -0.000001 -0.000002 2.999990 -5.000208 7.998726 -0.000148 -12.824072 -154.972279 7.699403 -179.999991 0.000007 -1.552006 156.751311 -0.690942 -1.182827 -0.000003 0.000002 0.302853 67.480036 6.834914 2.421336 26.892622 -7.314364 1.721191 -22.642798 161.981119 -1.970868 -0.000003 -0.000004 -1.480400 -28.677321 0.485490 0.767014 -0.000001 0.000001 -0.796329 69.840009 -6.927250 -1.963694 25.608466 7.353780 -0.201417 
45.093296 -11.233115 97.736092 4.981245 1.028440 6.912578 -2.535374 0.542929 -0.075885 -1.067433 1.088371 -0.132977 0.577771 1.086695 -0.146009 -1.483978 4.951058 -0.850852 14.770375 -4.184871 -0.605051 -17.315779 -3.617017 -19.508277 -155.867881 -174.904342 -105.726691 -0.000000 0.000002 0.000011 7.739164 4.581111 0.058283 -0.000001 0.000004 -3.001601 -5.000211 -7.998889 0.000161 -16.254933 21.943301 18.323053 -156.510616 195.643392 108.667647 -0.000001 0.000003 -0.000001 8.387429 -4.065668 1.347243 -0.000001 -0.000003 2.999989 -5.000209 7.998722 -0.000143 -12.499532 -155.104867 7.708654 -179.999991 0.000008 -1.558999 157.406736 -0.697065 -1.174064 -0.000003 0.000002 0.268481 67.292110 6.838199 2.411670 26.585485 -7.329923 1.351418 -22.018558 162.004410 -2.136355 -0.000005 -0.000003 -1.496288 -27.567762 0.604032 0.821155 -0.000001 -0.000001 -0.678047 68.993489 -6.936294 -1.995195 25.575975 7.354256 -0.158238 
45.112995 -11.224413 98.068993 4.944134 1.000702 6.893309 -2.544087 0.550330 -0.067659 -1.084931 1.102892 -0.116220 0.560279 1.101407 -0.129425 -1.651293 4.990968 -0.818314 15.044520 -4.238805 -0.561965 -17.346742 -3.804688 -19.567790 -155.820903 -174.534829 -105.871668 -0.000000 0.000002 0.000010 7.680146 4.494190 0.053342 -0.000000 0.000004 -3.001601 -5.000211 -7.998889 0.000158 -16.240337 22.223827 18.311426 -156.363056 195.294260 109.101487 -0.000000 0.000003 -0.000001 8.314866 -3.721432 1.322283 -0.000001 -0.000003 2.999991 -5.000210 7.998723 -0.000147 -12.187193 -155.242345 7.713602 -179.999991 0.000006 -1.564997 158.032956 -0.703908 -1.164922 -0.000003 0.000001 0.236765 67.118575 6.840861 2.403094 26.294550 -7.341260 1.002020 -21.414035 162.035583 -2.289422 -0.000001 -0.000004 -1.510349 -26.490534 0.716773 0.867061 -0.000001 0.000001 -0.565798 68.197554 -6.943666 -2.028281 25.545380 7.354648 -0.117512 
45.105995 -11.261714 98.434006 4.908755 0.975483 6.879755 -2.552440 0.557312 -0.060219 -1.101689 1.116593 -0.101049 0.543513 1.115290 -0.114420 -1.820826 5.016129 -0.789763 15.316272 -4.275954 -0.524655 -17.386142 -4.002002 -19.640771 -155.767996 -174.174714 -106.004638 -0.000000 0.000002 0.000009 7.613851 4.412616 0.048750 -0.000000 0.000004 -3.001592 -5.000212 -7.998893 0.000163 -16.221650 22.511967 18.294639 -156.227108 194.955934 109.513300 -0.000002 0.000002 0.000002 8.238002 -3.395224 1.298741 -0.000001 -0.000003 2.999994 -5.000207 7.998722 -0.000144 -11.888352 -155.382787 7.714963 -179.999991 0.000008 -1.571007 158.626157 -0.711465 -1.156449 -0.000004 -0.000000 0.207179 66.956146 6.843644 2.395074 26.028114 -7.348751 0.682611 -20.834836 162.074993 -2.425594 -0.000004 -0.000004 -1.522412 -25.454211 0.821963 0.903498 -0.000001 -0.000001 -0.461943 67.465965 -6.951091 -2.058846 25.517322 7.354984 -0.080275 
45.135998 -11.302615 98.767700 4.875856 0.952379 6.873800 -2.560563 0.563951 -0.053752 -1.118007 1.129635 -0.087827 0.527207 1.128492 -0.101357 -1.990294 5.025451 -0.766389 15.583471 -4.295173 -0.494427 -17.434638 -4.209548 -19.728366 -155.707317 -173.826580 -106.121721 -0.000000 0.000000 0.000009 7.539115 4.338150 0.044623 -0.000000 0.000005 -3.001589 -5.000212 -7.998891 0.000159 -16.198169 22.809005 18.271446 -156.099643 194.633562 109.894233 0.000001 0.000004 -0.000005 8.156166 -3.092443 1.276916 -0.000001 -0.000003 2.999989 -5.000207 7.998724 -0.000144 -11.604497 -155.526194 7.713992 -179.999991 0.000005 -1.576007 159.182668 -0.720673 -1.147009 -0.000003 0.000001 0.179201 66.801579 6.847292 2.387054 25.794203 -7.353072 0.402746 -20.286123 162.125796 -2.541523 -0.000001 -0.000007 -1.532310 -24.467245 0.917762 0.929348 -0.000001 0.000000 -0.368841 66.812856 -6.960510 -2.082360 25.492686 7.355255 -0.047584 
